<mxfile host="app.diagrams.net" modified="2023-05-16T23:22:22.410Z" agent="Mozilla/5.0 (Windows NT 10.0; Win64; x64) AppleWebKit/537.36 (KHTML, like Gecko) Chrome/113.0.0.0 Safari/537.36" etag="P-fQGc_kxeEA74BAUs-G" version="21.3.2" type="device">
  <diagram id="C5RBs43oDa-KdzZeNtuy" name="Page-1">
    <mxGraphModel dx="2140" dy="676" grid="1" gridSize="10" guides="1" tooltips="1" connect="1" arrows="1" fold="1" page="1" pageScale="1" pageWidth="827" pageHeight="1169" math="0" shadow="0">
      <root>
        <mxCell id="WIyWlLk6GJQsqaUBKTNV-0" />
        <mxCell id="WIyWlLk6GJQsqaUBKTNV-1" parent="WIyWlLk6GJQsqaUBKTNV-0" />
        <mxCell id="zkfFHV4jXpPFQw0GAbJ--0" value="Zonas" style="swimlane;fontStyle=2;align=center;verticalAlign=top;childLayout=stackLayout;horizontal=1;startSize=26;horizontalStack=0;resizeParent=1;resizeLast=0;collapsible=1;marginBottom=0;rounded=0;shadow=0;strokeWidth=1;fillColor=#ffff88;strokeColor=#36393d;" parent="WIyWlLk6GJQsqaUBKTNV-1" vertex="1">
          <mxGeometry x="-450" y="50" width="160" height="150" as="geometry">
            <mxRectangle x="230" y="140" width="160" height="26" as="alternateBounds" />
          </mxGeometry>
        </mxCell>
        <mxCell id="zkfFHV4jXpPFQw0GAbJ--1" value="- nombreZona: String" style="text;align=left;verticalAlign=top;spacingLeft=4;spacingRight=4;overflow=hidden;rotatable=0;points=[[0,0.5],[1,0.5]];portConstraint=eastwest;fillColor=#fff2cc;strokeColor=#d6b656;" parent="zkfFHV4jXpPFQw0GAbJ--0" vertex="1">
          <mxGeometry y="26" width="160" height="26" as="geometry" />
        </mxCell>
        <mxCell id="pj540Dn3dHMJfVcxnJeQ-4" value="- extensión: Real" style="text;align=left;verticalAlign=top;spacingLeft=4;spacingRight=4;overflow=hidden;rotatable=0;points=[[0,0.5],[1,0.5]];portConstraint=eastwest;fillColor=#fff2cc;strokeColor=#d6b656;" parent="zkfFHV4jXpPFQw0GAbJ--0" vertex="1">
          <mxGeometry y="52" width="160" height="26" as="geometry" />
        </mxCell>
        <mxCell id="zkfFHV4jXpPFQw0GAbJ--4" value="" style="line;html=1;strokeWidth=1;align=left;verticalAlign=middle;spacingTop=-1;spacingLeft=3;spacingRight=3;rotatable=0;labelPosition=right;points=[];portConstraint=eastwest;" parent="zkfFHV4jXpPFQw0GAbJ--0" vertex="1">
          <mxGeometry y="78" width="160" height="8" as="geometry" />
        </mxCell>
        <mxCell id="pj540Dn3dHMJfVcxnJeQ-36" value="+eliminarZona()" style="text;align=left;verticalAlign=top;spacingLeft=4;spacingRight=4;overflow=hidden;rotatable=0;points=[[0,0.5],[1,0.5]];portConstraint=eastwest;rounded=0;shadow=0;html=0;fillColor=#ffe6cc;strokeColor=#d79b00;" parent="zkfFHV4jXpPFQw0GAbJ--0" vertex="1">
          <mxGeometry y="86" width="160" height="24" as="geometry" />
        </mxCell>
        <mxCell id="pj540Dn3dHMJfVcxnJeQ-35" value="+modificarZona()" style="text;align=left;verticalAlign=top;spacingLeft=4;spacingRight=4;overflow=hidden;rotatable=0;points=[[0,0.5],[1,0.5]];portConstraint=eastwest;rounded=0;shadow=0;html=0;fillColor=#ffe6cc;strokeColor=#d79b00;" parent="zkfFHV4jXpPFQw0GAbJ--0" vertex="1">
          <mxGeometry y="110" width="160" height="20" as="geometry" />
        </mxCell>
        <mxCell id="pj540Dn3dHMJfVcxnJeQ-34" value="+ agregarZona()" style="text;align=left;verticalAlign=top;spacingLeft=4;spacingRight=4;overflow=hidden;rotatable=0;points=[[0,0.5],[1,0.5]];portConstraint=eastwest;rounded=0;shadow=0;html=0;fillColor=#ffe6cc;strokeColor=#d79b00;" parent="zkfFHV4jXpPFQw0GAbJ--0" vertex="1">
          <mxGeometry y="130" width="160" height="20" as="geometry" />
        </mxCell>
        <mxCell id="7TuT9SwdEy-nJcB1ycvT-58" value="Cuidadores" style="swimlane;fontStyle=0;align=center;verticalAlign=top;childLayout=stackLayout;horizontal=1;startSize=26;horizontalStack=0;resizeParent=1;resizeLast=0;collapsible=1;marginBottom=0;rounded=0;shadow=0;strokeWidth=1;fillColor=#ffff88;strokeColor=#36393d;" parent="WIyWlLk6GJQsqaUBKTNV-1" vertex="1">
          <mxGeometry x="-540" y="480" width="190" height="162" as="geometry">
            <mxRectangle x="550" y="140" width="160" height="26" as="alternateBounds" />
          </mxGeometry>
        </mxCell>
        <mxCell id="7TuT9SwdEy-nJcB1ycvT-59" value="-ID- Cuidadores:String" style="text;align=left;verticalAlign=top;spacingLeft=4;spacingRight=4;overflow=hidden;rotatable=0;points=[[0,0.5],[1,0.5]];portConstraint=eastwest;fillColor=#fff2cc;strokeColor=#d6b656;" parent="7TuT9SwdEy-nJcB1ycvT-58" vertex="1">
          <mxGeometry y="26" width="190" height="26" as="geometry" />
        </mxCell>
        <mxCell id="7TuT9SwdEy-nJcB1ycvT-60" value="- activo: Booleano" style="text;align=left;verticalAlign=top;spacingLeft=4;spacingRight=4;overflow=hidden;rotatable=0;points=[[0,0.5],[1,0.5]];portConstraint=eastwest;rounded=0;shadow=0;html=0;fillColor=#fff2cc;strokeColor=#d6b656;" parent="7TuT9SwdEy-nJcB1ycvT-58" vertex="1">
          <mxGeometry y="52" width="190" height="28" as="geometry" />
        </mxCell>
        <mxCell id="pj540Dn3dHMJfVcxnJeQ-18" value="-fechaInicial : Fecha" style="text;align=left;verticalAlign=top;spacingLeft=4;spacingRight=4;overflow=hidden;rotatable=0;points=[[0,0.5],[1,0.5]];portConstraint=eastwest;rounded=0;shadow=0;html=0;fillColor=#fff2cc;strokeColor=#d6b656;" parent="7TuT9SwdEy-nJcB1ycvT-58" vertex="1">
          <mxGeometry y="80" width="190" height="26" as="geometry" />
        </mxCell>
        <mxCell id="7TuT9SwdEy-nJcB1ycvT-83" value="- anioExperiencia:Entero" style="text;align=left;verticalAlign=top;spacingLeft=4;spacingRight=4;overflow=hidden;rotatable=0;points=[[0,0.5],[1,0.5]];portConstraint=eastwest;rounded=0;shadow=0;html=0;fillColor=#fff2cc;strokeColor=#d6b656;" parent="7TuT9SwdEy-nJcB1ycvT-58" vertex="1">
          <mxGeometry y="106" width="190" height="26" as="geometry" />
        </mxCell>
        <mxCell id="7TuT9SwdEy-nJcB1ycvT-67" value="" style="line;html=1;strokeWidth=1;align=left;verticalAlign=middle;spacingTop=-1;spacingLeft=3;spacingRight=3;rotatable=0;labelPosition=right;points=[];portConstraint=eastwest;" parent="7TuT9SwdEy-nJcB1ycvT-58" vertex="1">
          <mxGeometry y="132" width="190" height="8" as="geometry" />
        </mxCell>
        <mxCell id="7TuT9SwdEy-nJcB1ycvT-78" value="Guias" style="swimlane;fontStyle=0;align=center;verticalAlign=top;childLayout=stackLayout;horizontal=1;startSize=26;horizontalStack=0;resizeParent=1;resizeLast=0;collapsible=1;marginBottom=0;rounded=0;shadow=0;strokeWidth=1;fillColor=#ffff88;strokeColor=#36393d;" parent="WIyWlLk6GJQsqaUBKTNV-1" vertex="1">
          <mxGeometry x="-60" y="440" width="190" height="120" as="geometry">
            <mxRectangle x="550" y="140" width="160" height="26" as="alternateBounds" />
          </mxGeometry>
        </mxCell>
        <mxCell id="7TuT9SwdEy-nJcB1ycvT-79" value="- ID-Guia:String" style="text;align=left;verticalAlign=top;spacingLeft=4;spacingRight=4;overflow=hidden;rotatable=0;points=[[0,0.5],[1,0.5]];portConstraint=eastwest;fillColor=#fff2cc;strokeColor=#d6b656;" parent="7TuT9SwdEy-nJcB1ycvT-78" vertex="1">
          <mxGeometry y="26" width="190" height="26" as="geometry" />
        </mxCell>
        <mxCell id="7TuT9SwdEy-nJcB1ycvT-80" value="-activo: Booleano" style="text;align=left;verticalAlign=top;spacingLeft=4;spacingRight=4;overflow=hidden;rotatable=0;points=[[0,0.5],[1,0.5]];portConstraint=eastwest;rounded=0;shadow=0;html=0;fillColor=#fff2cc;strokeColor=#d6b656;" parent="7TuT9SwdEy-nJcB1ycvT-78" vertex="1">
          <mxGeometry y="52" width="190" height="28" as="geometry" />
        </mxCell>
        <mxCell id="7TuT9SwdEy-nJcB1ycvT-81" value="-fechaInicial : Fecha" style="text;align=left;verticalAlign=top;spacingLeft=4;spacingRight=4;overflow=hidden;rotatable=0;points=[[0,0.5],[1,0.5]];portConstraint=eastwest;rounded=0;shadow=0;html=0;fillColor=#fff2cc;strokeColor=#d6b656;" parent="7TuT9SwdEy-nJcB1ycvT-78" vertex="1">
          <mxGeometry y="80" width="190" height="26" as="geometry" />
        </mxCell>
        <mxCell id="7TuT9SwdEy-nJcB1ycvT-85" value="" style="line;html=1;strokeWidth=1;align=left;verticalAlign=middle;spacingTop=-1;spacingLeft=3;spacingRight=3;rotatable=0;labelPosition=right;points=[];portConstraint=eastwest;" parent="7TuT9SwdEy-nJcB1ycvT-78" vertex="1">
          <mxGeometry y="106" width="190" height="8" as="geometry" />
        </mxCell>
        <mxCell id="7TuT9SwdEy-nJcB1ycvT-89" value="Itierario" style="swimlane;fontStyle=0;align=center;verticalAlign=top;childLayout=stackLayout;horizontal=1;startSize=26;horizontalStack=0;resizeParent=1;resizeLast=0;collapsible=1;marginBottom=0;rounded=0;shadow=0;strokeWidth=1;fillColor=#ffff88;strokeColor=#36393d;" parent="WIyWlLk6GJQsqaUBKTNV-1" vertex="1">
          <mxGeometry x="-760" y="210" width="190" height="286" as="geometry">
            <mxRectangle x="550" y="140" width="160" height="26" as="alternateBounds" />
          </mxGeometry>
        </mxCell>
        <mxCell id="7TuT9SwdEy-nJcB1ycvT-90" value="-códigoItinerario: String" style="text;align=left;verticalAlign=top;spacingLeft=4;spacingRight=4;overflow=hidden;rotatable=0;points=[[0,0.5],[1,0.5]];portConstraint=eastwest;fillColor=#fff2cc;strokeColor=#d6b656;" parent="7TuT9SwdEy-nJcB1ycvT-89" vertex="1">
          <mxGeometry y="26" width="190" height="26" as="geometry" />
        </mxCell>
        <mxCell id="7TuT9SwdEy-nJcB1ycvT-91" value="-duraciónRecorrido: Entero" style="text;align=left;verticalAlign=top;spacingLeft=4;spacingRight=4;overflow=hidden;rotatable=0;points=[[0,0.5],[1,0.5]];portConstraint=eastwest;rounded=0;shadow=0;html=0;fillColor=#fff2cc;strokeColor=#d6b656;" parent="7TuT9SwdEy-nJcB1ycvT-89" vertex="1">
          <mxGeometry y="52" width="190" height="28" as="geometry" />
        </mxCell>
        <mxCell id="7TuT9SwdEy-nJcB1ycvT-92" value="-longitud: Entero" style="text;align=left;verticalAlign=top;spacingLeft=4;spacingRight=4;overflow=hidden;rotatable=0;points=[[0,0.5],[1,0.5]];portConstraint=eastwest;rounded=0;shadow=0;html=0;fillColor=#fff2cc;strokeColor=#d6b656;" parent="7TuT9SwdEy-nJcB1ycvT-89" vertex="1">
          <mxGeometry y="80" width="190" height="26" as="geometry" />
        </mxCell>
        <mxCell id="pj540Dn3dHMJfVcxnJeQ-16" value="- numMaxVisitantes:Entero" style="text;align=left;verticalAlign=top;spacingLeft=4;spacingRight=4;overflow=hidden;rotatable=0;points=[[0,0.5],[1,0.5]];portConstraint=eastwest;rounded=0;shadow=0;html=0;fillColor=#fff2cc;strokeColor=#d6b656;" parent="7TuT9SwdEy-nJcB1ycvT-89" vertex="1">
          <mxGeometry y="106" width="190" height="26" as="geometry" />
        </mxCell>
        <mxCell id="7TuT9SwdEy-nJcB1ycvT-93" value="-cantidadEspecies:Entero" style="text;align=left;verticalAlign=top;spacingLeft=4;spacingRight=4;overflow=hidden;rotatable=0;points=[[0,0.5],[1,0.5]];portConstraint=eastwest;rounded=0;shadow=0;html=0;fillColor=#fff2cc;strokeColor=#d6b656;" parent="7TuT9SwdEy-nJcB1ycvT-89" vertex="1">
          <mxGeometry y="132" width="190" height="26" as="geometry" />
        </mxCell>
        <mxCell id="7TuT9SwdEy-nJcB1ycvT-94" value="" style="line;html=1;strokeWidth=1;align=left;verticalAlign=middle;spacingTop=-1;spacingLeft=3;spacingRight=3;rotatable=0;labelPosition=right;points=[];portConstraint=eastwest;" parent="7TuT9SwdEy-nJcB1ycvT-89" vertex="1">
          <mxGeometry y="158" width="190" height="8" as="geometry" />
        </mxCell>
        <mxCell id="wQ3v4SunbkgnjZx-NO9_-3" value="+ agregarEspecies()" style="text;align=left;verticalAlign=top;spacingLeft=4;spacingRight=4;overflow=hidden;rotatable=0;points=[[0,0.5],[1,0.5]];portConstraint=eastwest;rounded=0;shadow=0;html=0;fillColor=#ffe6cc;strokeColor=#d79b00;" vertex="1" parent="7TuT9SwdEy-nJcB1ycvT-89">
          <mxGeometry y="166" width="190" height="40" as="geometry" />
        </mxCell>
        <mxCell id="wQ3v4SunbkgnjZx-NO9_-5" value="+eliminarEspecies()" style="text;align=left;verticalAlign=top;spacingLeft=4;spacingRight=4;overflow=hidden;rotatable=0;points=[[0,0.5],[1,0.5]];portConstraint=eastwest;rounded=0;shadow=0;html=0;fillColor=#ffe6cc;strokeColor=#d79b00;" vertex="1" parent="7TuT9SwdEy-nJcB1ycvT-89">
          <mxGeometry y="206" width="190" height="40" as="geometry" />
        </mxCell>
        <mxCell id="wQ3v4SunbkgnjZx-NO9_-4" value="+modificarEspecies()" style="text;align=left;verticalAlign=top;spacingLeft=4;spacingRight=4;overflow=hidden;rotatable=0;points=[[0,0.5],[1,0.5]];portConstraint=eastwest;rounded=0;shadow=0;html=0;fillColor=#ffe6cc;strokeColor=#d79b00;" vertex="1" parent="7TuT9SwdEy-nJcB1ycvT-89">
          <mxGeometry y="246" width="190" height="40" as="geometry" />
        </mxCell>
        <mxCell id="7TuT9SwdEy-nJcB1ycvT-99" value="Habitad" style="swimlane;fontStyle=0;align=center;verticalAlign=top;childLayout=stackLayout;horizontal=1;startSize=26;horizontalStack=0;resizeParent=1;resizeLast=0;collapsible=1;marginBottom=0;rounded=0;shadow=0;strokeWidth=1;fillColor=#ffff88;strokeColor=#36393d;" parent="WIyWlLk6GJQsqaUBKTNV-1" vertex="1">
          <mxGeometry x="160" y="50" width="190" height="264" as="geometry">
            <mxRectangle x="550" y="140" width="160" height="26" as="alternateBounds" />
          </mxGeometry>
        </mxCell>
        <mxCell id="7TuT9SwdEy-nJcB1ycvT-100" value="-nombre: String" style="text;align=left;verticalAlign=top;spacingLeft=4;spacingRight=4;overflow=hidden;rotatable=0;points=[[0,0.5],[1,0.5]];portConstraint=eastwest;fillColor=#fff2cc;strokeColor=#d6b656;" parent="7TuT9SwdEy-nJcB1ycvT-99" vertex="1">
          <mxGeometry y="26" width="190" height="26" as="geometry" />
        </mxCell>
        <mxCell id="7TuT9SwdEy-nJcB1ycvT-101" value="-clima: String" style="text;align=left;verticalAlign=top;spacingLeft=4;spacingRight=4;overflow=hidden;rotatable=0;points=[[0,0.5],[1,0.5]];portConstraint=eastwest;rounded=0;shadow=0;html=0;fillColor=#fff2cc;strokeColor=#d6b656;" parent="7TuT9SwdEy-nJcB1ycvT-99" vertex="1">
          <mxGeometry y="52" width="190" height="28" as="geometry" />
        </mxCell>
        <mxCell id="pj540Dn3dHMJfVcxnJeQ-1" value="-vegetación: String" style="text;align=left;verticalAlign=top;spacingLeft=4;spacingRight=4;overflow=hidden;rotatable=0;points=[[0,0.5],[1,0.5]];portConstraint=eastwest;rounded=0;shadow=0;html=0;fillColor=#fff2cc;strokeColor=#d6b656;" parent="7TuT9SwdEy-nJcB1ycvT-99" vertex="1">
          <mxGeometry y="80" width="190" height="28" as="geometry" />
        </mxCell>
        <mxCell id="pj540Dn3dHMJfVcxnJeQ-0" value="-continente: String" style="text;align=left;verticalAlign=top;spacingLeft=4;spacingRight=4;overflow=hidden;rotatable=0;points=[[0,0.5],[1,0.5]];portConstraint=eastwest;rounded=0;shadow=0;html=0;fillColor=#fff2cc;strokeColor=#d6b656;" parent="7TuT9SwdEy-nJcB1ycvT-99" vertex="1">
          <mxGeometry y="108" width="190" height="28" as="geometry" />
        </mxCell>
        <mxCell id="7TuT9SwdEy-nJcB1ycvT-104" value="" style="line;html=1;strokeWidth=1;align=left;verticalAlign=middle;spacingTop=-1;spacingLeft=3;spacingRight=3;rotatable=0;labelPosition=right;points=[];portConstraint=eastwest;" parent="7TuT9SwdEy-nJcB1ycvT-99" vertex="1">
          <mxGeometry y="136" width="190" height="8" as="geometry" />
        </mxCell>
        <mxCell id="pj540Dn3dHMJfVcxnJeQ-33" value="+eliminarHabitad()" style="text;align=left;verticalAlign=top;spacingLeft=4;spacingRight=4;overflow=hidden;rotatable=0;points=[[0,0.5],[1,0.5]];portConstraint=eastwest;rounded=0;shadow=0;html=0;fillColor=#ffe6cc;strokeColor=#d79b00;" parent="7TuT9SwdEy-nJcB1ycvT-99" vertex="1">
          <mxGeometry y="144" width="190" height="40" as="geometry" />
        </mxCell>
        <mxCell id="pj540Dn3dHMJfVcxnJeQ-32" value="+modificarHabitad()" style="text;align=left;verticalAlign=top;spacingLeft=4;spacingRight=4;overflow=hidden;rotatable=0;points=[[0,0.5],[1,0.5]];portConstraint=eastwest;rounded=0;shadow=0;html=0;fillColor=#ffe6cc;strokeColor=#d79b00;" parent="7TuT9SwdEy-nJcB1ycvT-99" vertex="1">
          <mxGeometry y="184" width="190" height="40" as="geometry" />
        </mxCell>
        <mxCell id="pj540Dn3dHMJfVcxnJeQ-31" value="+ agregarHabitad()" style="text;align=left;verticalAlign=top;spacingLeft=4;spacingRight=4;overflow=hidden;rotatable=0;points=[[0,0.5],[1,0.5]];portConstraint=eastwest;rounded=0;shadow=0;html=0;fillColor=#ffe6cc;strokeColor=#d79b00;" parent="7TuT9SwdEy-nJcB1ycvT-99" vertex="1">
          <mxGeometry y="224" width="190" height="40" as="geometry" />
        </mxCell>
        <mxCell id="7TuT9SwdEy-nJcB1ycvT-109" value="Especies-Animales" style="swimlane;fontStyle=0;align=center;verticalAlign=top;childLayout=stackLayout;horizontal=1;startSize=26;horizontalStack=0;resizeParent=1;resizeLast=0;collapsible=1;marginBottom=0;rounded=0;shadow=0;strokeWidth=1;fillColor=#ffff88;strokeColor=#36393d;" parent="WIyWlLk6GJQsqaUBKTNV-1" vertex="1">
          <mxGeometry x="-170" y="50" width="190" height="210" as="geometry">
            <mxRectangle x="550" y="140" width="160" height="26" as="alternateBounds" />
          </mxGeometry>
        </mxCell>
        <mxCell id="7TuT9SwdEy-nJcB1ycvT-110" value="-nombreEspaniol:String" style="text;align=left;verticalAlign=top;spacingLeft=4;spacingRight=4;overflow=hidden;rotatable=0;points=[[0,0.5],[1,0.5]];portConstraint=eastwest;fillColor=#fff2cc;strokeColor=#d6b656;" parent="7TuT9SwdEy-nJcB1ycvT-109" vertex="1">
          <mxGeometry y="26" width="190" height="26" as="geometry" />
        </mxCell>
        <mxCell id="7TuT9SwdEy-nJcB1ycvT-111" value="-nombreCientifico:String" style="text;align=left;verticalAlign=top;spacingLeft=4;spacingRight=4;overflow=hidden;rotatable=0;points=[[0,0.5],[1,0.5]];portConstraint=eastwest;rounded=0;shadow=0;html=0;fillColor=#fff2cc;strokeColor=#d6b656;" parent="7TuT9SwdEy-nJcB1ycvT-109" vertex="1">
          <mxGeometry y="52" width="190" height="28" as="geometry" />
        </mxCell>
        <mxCell id="7TuT9SwdEy-nJcB1ycvT-112" value="- descripcionGeneral:String" style="text;align=left;verticalAlign=top;spacingLeft=4;spacingRight=4;overflow=hidden;rotatable=0;points=[[0,0.5],[1,0.5]];portConstraint=eastwest;rounded=0;shadow=0;html=0;fillColor=#fff2cc;strokeColor=#d6b656;" parent="7TuT9SwdEy-nJcB1ycvT-109" vertex="1">
          <mxGeometry y="80" width="190" height="26" as="geometry" />
        </mxCell>
        <mxCell id="7TuT9SwdEy-nJcB1ycvT-118" value="" style="line;html=1;strokeWidth=1;align=left;verticalAlign=middle;spacingTop=-1;spacingLeft=3;spacingRight=3;rotatable=0;labelPosition=right;points=[];portConstraint=eastwest;" parent="7TuT9SwdEy-nJcB1ycvT-109" vertex="1">
          <mxGeometry y="106" width="190" height="8" as="geometry" />
        </mxCell>
        <mxCell id="pj540Dn3dHMJfVcxnJeQ-19" value="+ agregarEspecies()" style="text;align=left;verticalAlign=top;spacingLeft=4;spacingRight=4;overflow=hidden;rotatable=0;points=[[0,0.5],[1,0.5]];portConstraint=eastwest;rounded=0;shadow=0;html=0;fillColor=#ffe6cc;strokeColor=#d79b00;" parent="7TuT9SwdEy-nJcB1ycvT-109" vertex="1">
          <mxGeometry y="114" width="190" height="26" as="geometry" />
        </mxCell>
        <mxCell id="pj540Dn3dHMJfVcxnJeQ-24" value="+modificarEspecies()" style="text;align=left;verticalAlign=top;spacingLeft=4;spacingRight=4;overflow=hidden;rotatable=0;points=[[0,0.5],[1,0.5]];portConstraint=eastwest;rounded=0;shadow=0;html=0;fillColor=#ffe6cc;strokeColor=#d79b00;" parent="7TuT9SwdEy-nJcB1ycvT-109" vertex="1">
          <mxGeometry y="140" width="190" height="20" as="geometry" />
        </mxCell>
        <mxCell id="pj540Dn3dHMJfVcxnJeQ-23" value="+eliminarEspecies()" style="text;align=left;verticalAlign=top;spacingLeft=4;spacingRight=4;overflow=hidden;rotatable=0;points=[[0,0.5],[1,0.5]];portConstraint=eastwest;rounded=0;shadow=0;html=0;fillColor=#ffe6cc;strokeColor=#d79b00;" parent="7TuT9SwdEy-nJcB1ycvT-109" vertex="1">
          <mxGeometry y="160" width="190" height="20" as="geometry" />
        </mxCell>
        <mxCell id="pj540Dn3dHMJfVcxnJeQ-37" value="+getInfoEspecies()" style="text;align=left;verticalAlign=top;spacingLeft=4;spacingRight=4;overflow=hidden;rotatable=0;points=[[0,0.5],[1,0.5]];portConstraint=eastwest;rounded=0;shadow=0;html=0;fillColor=#ffe6cc;strokeColor=#d79b00;" parent="7TuT9SwdEy-nJcB1ycvT-109" vertex="1">
          <mxGeometry y="180" width="190" height="20" as="geometry" />
        </mxCell>
        <mxCell id="pj540Dn3dHMJfVcxnJeQ-5" value="&lt;&lt;Empelados&gt;&gt;" style="swimlane;fontStyle=0;align=center;verticalAlign=top;childLayout=stackLayout;horizontal=1;startSize=26;horizontalStack=0;resizeParent=1;resizeLast=0;collapsible=1;marginBottom=0;rounded=0;shadow=0;strokeWidth=1;fillColor=#ffff88;strokeColor=#36393d;" parent="WIyWlLk6GJQsqaUBKTNV-1" vertex="1">
          <mxGeometry x="-220" y="620" width="190" height="220" as="geometry">
            <mxRectangle x="550" y="140" width="160" height="26" as="alternateBounds" />
          </mxGeometry>
        </mxCell>
        <mxCell id="pj540Dn3dHMJfVcxnJeQ-6" value="-Identificación:String" style="text;align=left;verticalAlign=top;spacingLeft=4;spacingRight=4;overflow=hidden;rotatable=0;points=[[0,0.5],[1,0.5]];portConstraint=eastwest;fillColor=#fff2cc;strokeColor=#d6b656;" parent="pj540Dn3dHMJfVcxnJeQ-5" vertex="1">
          <mxGeometry y="26" width="190" height="26" as="geometry" />
        </mxCell>
        <mxCell id="pj540Dn3dHMJfVcxnJeQ-7" value="-nombre:String" style="text;align=left;verticalAlign=top;spacingLeft=4;spacingRight=4;overflow=hidden;rotatable=0;points=[[0,0.5],[1,0.5]];portConstraint=eastwest;rounded=0;shadow=0;html=0;fillColor=#fff2cc;strokeColor=#d6b656;" parent="pj540Dn3dHMJfVcxnJeQ-5" vertex="1">
          <mxGeometry y="52" width="190" height="28" as="geometry" />
        </mxCell>
        <mxCell id="pj540Dn3dHMJfVcxnJeQ-8" value="- apellidos:String" style="text;align=left;verticalAlign=top;spacingLeft=4;spacingRight=4;overflow=hidden;rotatable=0;points=[[0,0.5],[1,0.5]];portConstraint=eastwest;rounded=0;shadow=0;html=0;fillColor=#fff2cc;strokeColor=#d6b656;" parent="pj540Dn3dHMJfVcxnJeQ-5" vertex="1">
          <mxGeometry y="80" width="190" height="26" as="geometry" />
        </mxCell>
        <mxCell id="pj540Dn3dHMJfVcxnJeQ-17" value="- telefóno:entero" style="text;align=left;verticalAlign=top;spacingLeft=4;spacingRight=4;overflow=hidden;rotatable=0;points=[[0,0.5],[1,0.5]];portConstraint=eastwest;rounded=0;shadow=0;html=0;fillColor=#fff2cc;strokeColor=#d6b656;" parent="pj540Dn3dHMJfVcxnJeQ-5" vertex="1">
          <mxGeometry y="106" width="190" height="26" as="geometry" />
        </mxCell>
        <mxCell id="pj540Dn3dHMJfVcxnJeQ-10" value="-fechaNacimiento: Fecha" style="text;align=left;verticalAlign=top;spacingLeft=4;spacingRight=4;overflow=hidden;rotatable=0;points=[[0,0.5],[1,0.5]];portConstraint=eastwest;rounded=0;shadow=0;html=0;fillColor=#fff2cc;strokeColor=#d6b656;" parent="pj540Dn3dHMJfVcxnJeQ-5" vertex="1">
          <mxGeometry y="132" width="190" height="26" as="geometry" />
        </mxCell>
        <mxCell id="pj540Dn3dHMJfVcxnJeQ-12" value="-paisResidencia: String" style="text;align=left;verticalAlign=top;spacingLeft=4;spacingRight=4;overflow=hidden;rotatable=0;points=[[0,0.5],[1,0.5]];portConstraint=eastwest;rounded=0;shadow=0;html=0;fillColor=#fff2cc;strokeColor=#d6b656;" parent="pj540Dn3dHMJfVcxnJeQ-5" vertex="1">
          <mxGeometry y="158" width="190" height="26" as="geometry" />
        </mxCell>
        <mxCell id="pj540Dn3dHMJfVcxnJeQ-13" value="-dirección: String" style="text;align=left;verticalAlign=top;spacingLeft=4;spacingRight=4;overflow=hidden;rotatable=0;points=[[0,0.5],[1,0.5]];portConstraint=eastwest;rounded=0;shadow=0;html=0;fillColor=#fff2cc;strokeColor=#d6b656;" parent="pj540Dn3dHMJfVcxnJeQ-5" vertex="1">
          <mxGeometry y="184" width="190" height="28" as="geometry" />
        </mxCell>
        <mxCell id="pj540Dn3dHMJfVcxnJeQ-14" value="" style="line;html=1;strokeWidth=1;align=left;verticalAlign=middle;spacingTop=-1;spacingLeft=3;spacingRight=3;rotatable=0;labelPosition=right;points=[];portConstraint=eastwest;" parent="pj540Dn3dHMJfVcxnJeQ-5" vertex="1">
          <mxGeometry y="212" width="190" height="8" as="geometry" />
        </mxCell>
        <mxCell id="AGT-lP8gzc6p9tUIFtvJ-3" value="Hereda de" style="endArrow=block;endSize=16;endFill=0;html=1;rounded=0;exitX=0;exitY=0.5;exitDx=0;exitDy=0;entryX=0.5;entryY=1;entryDx=0;entryDy=0;" parent="WIyWlLk6GJQsqaUBKTNV-1" source="pj540Dn3dHMJfVcxnJeQ-17" target="7TuT9SwdEy-nJcB1ycvT-58" edge="1">
          <mxGeometry width="160" relative="1" as="geometry">
            <mxPoint x="-470" y="650" as="sourcePoint" />
            <mxPoint x="-290" y="560" as="targetPoint" />
            <Array as="points">
              <mxPoint x="-290" y="739" />
              <mxPoint x="-445" y="739" />
            </Array>
          </mxGeometry>
        </mxCell>
        <mxCell id="AGT-lP8gzc6p9tUIFtvJ-4" value="Hereda de" style="endArrow=block;endSize=16;endFill=0;html=1;rounded=0;exitX=1;exitY=0.5;exitDx=0;exitDy=0;entryX=0.5;entryY=1;entryDx=0;entryDy=0;" parent="WIyWlLk6GJQsqaUBKTNV-1" source="pj540Dn3dHMJfVcxnJeQ-17" target="7TuT9SwdEy-nJcB1ycvT-78" edge="1">
          <mxGeometry width="160" relative="1" as="geometry">
            <mxPoint x="-180" y="580" as="sourcePoint" />
            <mxPoint x="40" y="600" as="targetPoint" />
            <Array as="points">
              <mxPoint x="35" y="739" />
            </Array>
          </mxGeometry>
        </mxCell>
        <mxCell id="AGT-lP8gzc6p9tUIFtvJ-21" value="" style="endArrow=open;endFill=1;endSize=12;html=1;rounded=0;" parent="WIyWlLk6GJQsqaUBKTNV-1" edge="1">
          <mxGeometry width="160" relative="1" as="geometry">
            <mxPoint x="20" y="400" as="sourcePoint" />
            <mxPoint x="-560" y="400" as="targetPoint" />
            <Array as="points">
              <mxPoint x="20" y="440" />
              <mxPoint x="20" y="400" />
            </Array>
          </mxGeometry>
        </mxCell>
        <mxCell id="AGT-lP8gzc6p9tUIFtvJ-22" value="Asigna un&amp;nbsp;" style="edgeLabel;html=1;align=center;verticalAlign=middle;resizable=0;points=[];" parent="AGT-lP8gzc6p9tUIFtvJ-21" vertex="1" connectable="0">
          <mxGeometry x="0.2584" y="-1" relative="1" as="geometry">
            <mxPoint as="offset" />
          </mxGeometry>
        </mxCell>
        <mxCell id="AGT-lP8gzc6p9tUIFtvJ-23" value="1..*" style="edgeLabel;html=1;align=center;verticalAlign=middle;resizable=0;points=[];" parent="AGT-lP8gzc6p9tUIFtvJ-21" vertex="1" connectable="0">
          <mxGeometry x="0.8303" y="4" relative="1" as="geometry">
            <mxPoint as="offset" />
          </mxGeometry>
        </mxCell>
        <mxCell id="AGT-lP8gzc6p9tUIFtvJ-24" value="1..*" style="edgeLabel;html=1;align=center;verticalAlign=middle;resizable=0;points=[];" parent="AGT-lP8gzc6p9tUIFtvJ-21" vertex="1" connectable="0">
          <mxGeometry x="-0.6216" relative="1" as="geometry">
            <mxPoint as="offset" />
          </mxGeometry>
        </mxCell>
        <mxCell id="wQ3v4SunbkgnjZx-NO9_-6" value="" style="endArrow=open;endFill=1;endSize=12;html=1;rounded=0;entryX=-0.006;entryY=0.075;entryDx=0;entryDy=0;entryPerimeter=0;exitX=0.5;exitY=0;exitDx=0;exitDy=0;" edge="1" parent="WIyWlLk6GJQsqaUBKTNV-1" source="7TuT9SwdEy-nJcB1ycvT-89" target="zkfFHV4jXpPFQw0GAbJ--0">
          <mxGeometry width="160" relative="1" as="geometry">
            <mxPoint x="-690" y="70" as="sourcePoint" />
            <mxPoint x="-530" y="80" as="targetPoint" />
            <Array as="points">
              <mxPoint x="-665" y="65" />
            </Array>
          </mxGeometry>
        </mxCell>
        <mxCell id="wQ3v4SunbkgnjZx-NO9_-7" value="recorrre distintas" style="edgeLabel;html=1;align=center;verticalAlign=middle;resizable=0;points=[];" vertex="1" connectable="0" parent="wQ3v4SunbkgnjZx-NO9_-6">
          <mxGeometry x="0.0333" y="1" relative="1" as="geometry">
            <mxPoint as="offset" />
          </mxGeometry>
        </mxCell>
        <mxCell id="wQ3v4SunbkgnjZx-NO9_-8" value="" style="endArrow=open;endFill=1;endSize=12;html=1;rounded=0;exitX=1;exitY=0.096;exitDx=0;exitDy=0;exitPerimeter=0;" edge="1" parent="WIyWlLk6GJQsqaUBKTNV-1" source="7TuT9SwdEy-nJcB1ycvT-58">
          <mxGeometry width="160" relative="1" as="geometry">
            <mxPoint x="-250" y="390" as="sourcePoint" />
            <mxPoint x="-140" y="330" as="targetPoint" />
            <Array as="points">
              <mxPoint x="-140" y="496" />
            </Array>
          </mxGeometry>
        </mxCell>
        <mxCell id="wQ3v4SunbkgnjZx-NO9_-9" value="cuida" style="edgeLabel;html=1;align=center;verticalAlign=middle;resizable=0;points=[];" vertex="1" connectable="0" parent="wQ3v4SunbkgnjZx-NO9_-8">
          <mxGeometry x="-0.524" y="2" relative="1" as="geometry">
            <mxPoint x="-1" as="offset" />
          </mxGeometry>
        </mxCell>
        <mxCell id="wQ3v4SunbkgnjZx-NO9_-10" value="1..n" style="edgeLabel;html=1;align=center;verticalAlign=middle;resizable=0;points=[];" vertex="1" connectable="0" parent="wQ3v4SunbkgnjZx-NO9_-8">
          <mxGeometry x="-0.8697" y="1" relative="1" as="geometry">
            <mxPoint x="-1" as="offset" />
          </mxGeometry>
        </mxCell>
        <mxCell id="wQ3v4SunbkgnjZx-NO9_-11" value="1..n" style="edgeLabel;html=1;align=center;verticalAlign=middle;resizable=0;points=[];" vertex="1" connectable="0" parent="wQ3v4SunbkgnjZx-NO9_-8">
          <mxGeometry x="0.863" y="1" relative="1" as="geometry">
            <mxPoint as="offset" />
          </mxGeometry>
        </mxCell>
        <mxCell id="wQ3v4SunbkgnjZx-NO9_-14" value="" style="endArrow=diamondThin;endFill=0;endSize=24;html=1;rounded=0;exitX=0.007;exitY=0.043;exitDx=0;exitDy=0;exitPerimeter=0;entryX=0.993;entryY=0.042;entryDx=0;entryDy=0;entryPerimeter=0;" edge="1" parent="WIyWlLk6GJQsqaUBKTNV-1" source="7TuT9SwdEy-nJcB1ycvT-99" target="7TuT9SwdEy-nJcB1ycvT-109">
          <mxGeometry width="160" relative="1" as="geometry">
            <mxPoint x="-250" y="140" as="sourcePoint" />
            <mxPoint x="30" y="61" as="targetPoint" />
            <Array as="points" />
          </mxGeometry>
        </mxCell>
        <mxCell id="wQ3v4SunbkgnjZx-NO9_-20" value="n" style="edgeLabel;html=1;align=center;verticalAlign=middle;resizable=0;points=[];" vertex="1" connectable="0" parent="wQ3v4SunbkgnjZx-NO9_-14">
          <mxGeometry x="0.4694" relative="1" as="geometry">
            <mxPoint as="offset" />
          </mxGeometry>
        </mxCell>
        <mxCell id="wQ3v4SunbkgnjZx-NO9_-21" value="n" style="edgeLabel;html=1;align=center;verticalAlign=middle;resizable=0;points=[];" vertex="1" connectable="0" parent="wQ3v4SunbkgnjZx-NO9_-14">
          <mxGeometry x="-0.3803" y="4" relative="1" as="geometry">
            <mxPoint as="offset" />
          </mxGeometry>
        </mxCell>
        <mxCell id="wQ3v4SunbkgnjZx-NO9_-16" value="" style="endArrow=diamondThin;endFill=0;endSize=24;html=1;rounded=0;entryX=0.007;entryY=0.045;entryDx=0;entryDy=0;entryPerimeter=0;" edge="1" parent="WIyWlLk6GJQsqaUBKTNV-1" target="7TuT9SwdEy-nJcB1ycvT-109">
          <mxGeometry width="160" relative="1" as="geometry">
            <mxPoint x="-290" y="63" as="sourcePoint" />
            <mxPoint x="150" y="270" as="targetPoint" />
          </mxGeometry>
        </mxCell>
        <mxCell id="wQ3v4SunbkgnjZx-NO9_-18" value="n" style="edgeLabel;html=1;align=center;verticalAlign=middle;resizable=0;points=[];" vertex="1" connectable="0" parent="wQ3v4SunbkgnjZx-NO9_-16">
          <mxGeometry x="-0.5468" y="-2" relative="1" as="geometry">
            <mxPoint as="offset" />
          </mxGeometry>
        </mxCell>
        <mxCell id="wQ3v4SunbkgnjZx-NO9_-19" value="n" style="edgeLabel;html=1;align=center;verticalAlign=middle;resizable=0;points=[];" vertex="1" connectable="0" parent="wQ3v4SunbkgnjZx-NO9_-16">
          <mxGeometry x="0.3187" relative="1" as="geometry">
            <mxPoint as="offset" />
          </mxGeometry>
        </mxCell>
      </root>
    </mxGraphModel>
  </diagram>
</mxfile>
